<svg width="214" height="40" viewBox="0 0 214 40" fill="none" xmlns="http://www.w3.org/2000/svg">
<path d="M39.82 30V9H48.25C49.77 9 51.14 9.25 52.36 9.75C53.6 10.25 54.66 10.97 55.54 11.91C56.44 12.85 57.12 13.96 57.58 15.24C58.06 16.52 58.3 17.94 58.3 19.5C58.3 21.06 58.06 22.49 57.58 23.79C57.12 25.07 56.45 26.18 55.57 27.12C54.69 28.04 53.63 28.75 52.39 29.25C51.15 29.75 49.77 30 48.25 30H39.82ZM43.72 26.97L43.42 26.4H48.1C49.08 26.4 49.95 26.24 50.71 25.92C51.49 25.6 52.15 25.14 52.69 24.54C53.23 23.94 53.64 23.22 53.92 22.38C54.2 21.52 54.34 20.56 54.34 19.5C54.34 18.44 54.2 17.49 53.92 16.65C53.64 15.79 53.22 15.06 52.66 14.46C52.12 13.86 51.47 13.4 50.71 13.08C49.95 12.76 49.08 12.6 48.1 12.6H43.33L43.72 12.09V26.97ZM69.2751 30.3C67.6151 30.3 66.1451 29.95 64.8651 29.25C63.6051 28.55 62.6151 27.6 61.8951 26.4C61.1951 25.18 60.8451 23.79 60.8451 22.23C60.8451 20.99 61.0451 19.86 61.4451 18.84C61.8451 17.82 62.3951 16.94 63.0951 16.2C63.8151 15.44 64.6651 14.86 65.6451 14.46C66.6451 14.04 67.7351 13.83 68.9151 13.83C69.9551 13.83 70.9251 14.03 71.8251 14.43C72.7251 14.83 73.5051 15.38 74.1651 16.08C74.8251 16.76 75.3251 17.58 75.6651 18.54C76.0251 19.48 76.1951 20.51 76.1751 21.63L76.1451 22.92H63.3351L62.6451 20.4H73.0551L72.5751 20.91V20.25C72.5151 19.63 72.3151 19.09 71.9751 18.63C71.6351 18.15 71.1951 17.78 70.6551 17.52C70.1351 17.24 69.5551 17.1 68.9151 17.1C67.9351 17.1 67.1051 17.29 66.4251 17.67C65.7651 18.05 65.2651 18.6 64.9251 19.32C64.5851 20.02 64.4151 20.9 64.4151 21.96C64.4151 22.98 64.6251 23.87 65.0451 24.63C65.4851 25.39 66.0951 25.98 66.8751 26.4C67.6751 26.8 68.6051 27 69.6651 27C70.4051 27 71.0851 26.88 71.7051 26.64C72.3251 26.4 72.9951 25.97 73.7151 25.35L75.5451 27.9C75.0051 28.4 74.3851 28.83 73.6851 29.19C73.0051 29.53 72.2851 29.8 71.5251 30C70.7651 30.2 70.0151 30.3 69.2751 30.3ZM84.7232 30.3C83.3232 30.3 82.0632 30.07 80.9432 29.61C79.8432 29.13 78.9432 28.45 78.2432 27.57L80.6432 25.5C81.2432 26.18 81.9132 26.67 82.6532 26.97C83.3932 27.27 84.1732 27.42 84.9932 27.42C85.3332 27.42 85.6332 27.38 85.8932 27.3C86.1732 27.22 86.4132 27.1 86.6132 26.94C86.8132 26.78 86.9632 26.6 87.0632 26.4C87.1832 26.18 87.2432 25.94 87.2432 25.68C87.2432 25.2 87.0632 24.82 86.7032 24.54C86.5032 24.4 86.1832 24.25 85.7432 24.09C85.3232 23.93 84.7732 23.77 84.0932 23.61C83.0132 23.33 82.1132 23.01 81.3932 22.65C80.6732 22.27 80.1132 21.85 79.7132 21.39C79.3732 21.01 79.1132 20.58 78.9332 20.1C78.7732 19.62 78.6932 19.1 78.6932 18.54C78.6932 17.84 78.8432 17.21 79.1432 16.65C79.4632 16.07 79.8932 15.57 80.4332 15.15C80.9732 14.73 81.6032 14.41 82.3232 14.19C83.0432 13.97 83.7932 13.86 84.5732 13.86C85.3732 13.86 86.1432 13.96 86.8832 14.16C87.6432 14.36 88.3432 14.65 88.9832 15.03C89.6432 15.39 90.2032 15.83 90.6632 16.35L88.6232 18.6C88.2432 18.24 87.8232 17.92 87.3632 17.64C86.9232 17.36 86.4732 17.14 86.0132 16.98C85.5532 16.8 85.1232 16.71 84.7232 16.71C84.3432 16.71 84.0032 16.75 83.7032 16.83C83.4032 16.89 83.1532 16.99 82.9532 17.13C82.7532 17.27 82.5932 17.45 82.4732 17.67C82.3732 17.87 82.3232 18.11 82.3232 18.39C82.3432 18.63 82.4032 18.86 82.5032 19.08C82.6232 19.28 82.7832 19.45 82.9832 19.59C83.2032 19.73 83.5332 19.89 83.9732 20.07C84.4132 20.25 84.9832 20.42 85.6832 20.58C86.6632 20.84 87.4832 21.13 88.1432 21.45C88.8032 21.77 89.3232 22.14 89.7032 22.56C90.0832 22.92 90.3532 23.34 90.5132 23.82C90.6732 24.3 90.7532 24.83 90.7532 25.41C90.7532 26.35 90.4832 27.19 89.9432 27.93C89.4232 28.67 88.7032 29.25 87.7832 29.67C86.8832 30.09 85.8632 30.3 84.7232 30.3ZM97.7238 30L92.4138 14.19L96.1938 14.16L99.7338 25.44L99.0738 25.38L102.914 16.56H105.134L109.064 25.38L108.284 25.47L111.854 14.19H115.634L110.294 30H107.654L103.604 20.52L104.174 20.58L100.334 30H97.7238ZM125.32 30.3C123.66 30.3 122.19 29.95 120.91 29.25C119.65 28.55 118.66 27.6 117.94 26.4C117.24 25.18 116.89 23.79 116.89 22.23C116.89 20.99 117.09 19.86 117.49 18.84C117.89 17.82 118.44 16.94 119.14 16.2C119.86 15.44 120.71 14.86 121.69 14.46C122.69 14.04 123.78 13.83 124.96 13.83C126 13.83 126.97 14.03 127.87 14.43C128.77 14.83 129.55 15.38 130.21 16.08C130.87 16.76 131.37 17.58 131.71 18.54C132.07 19.48 132.24 20.51 132.22 21.63L132.19 22.92H119.38L118.69 20.4H129.1L128.62 20.91V20.25C128.56 19.63 128.36 19.09 128.02 18.63C127.68 18.15 127.24 17.78 126.7 17.52C126.18 17.24 125.6 17.1 124.96 17.1C123.98 17.1 123.15 17.29 122.47 17.67C121.81 18.05 121.31 18.6 120.97 19.32C120.63 20.02 120.46 20.9 120.46 21.96C120.46 22.98 120.67 23.87 121.09 24.63C121.53 25.39 122.14 25.98 122.92 26.4C123.72 26.8 124.65 27 125.71 27C126.45 27 127.13 26.88 127.75 26.64C128.37 26.4 129.04 25.97 129.76 25.35L131.59 27.9C131.05 28.4 130.43 28.83 129.73 29.19C129.05 29.53 128.33 29.8 127.57 30C126.81 30.2 126.06 30.3 125.32 30.3ZM141.458 30.3C140.158 30.3 138.978 29.94 137.918 29.22C136.858 28.5 136.008 27.52 135.368 26.28C134.728 25.04 134.408 23.63 134.408 22.05C134.408 20.47 134.728 19.06 135.368 17.82C136.008 16.58 136.878 15.61 137.978 14.91C139.078 14.21 140.318 13.86 141.698 13.86C142.498 13.86 143.228 13.98 143.888 14.22C144.548 14.44 145.128 14.76 145.628 15.18C146.128 15.6 146.538 16.08 146.858 16.62C147.198 17.16 147.428 17.74 147.548 18.36L146.738 18.15V14.19H150.458V30H146.708V26.22L147.578 26.07C147.438 26.61 147.178 27.14 146.798 27.66C146.438 28.16 145.978 28.61 145.418 29.01C144.878 29.39 144.268 29.7 143.588 29.94C142.928 30.18 142.218 30.3 141.458 30.3ZM142.478 27.03C143.338 27.03 144.098 26.82 144.758 26.4C145.418 25.98 145.928 25.4 146.288 24.66C146.668 23.9 146.858 23.03 146.858 22.05C146.858 21.09 146.668 20.24 146.288 19.5C145.928 18.76 145.418 18.18 144.758 17.76C144.098 17.34 143.338 17.13 142.478 17.13C141.618 17.13 140.858 17.34 140.198 17.76C139.558 18.18 139.058 18.76 138.698 19.5C138.338 20.24 138.158 21.09 138.158 22.05C138.158 23.03 138.338 23.9 138.698 24.66C139.058 25.4 139.558 25.98 140.198 26.4C140.858 26.82 141.618 27.03 142.478 27.03ZM156.446 30V10.17H160.136V30H156.446ZM153.326 17.61V14.19H163.586V17.61H153.326ZM166.396 30V7.8H170.056V17.43L169.366 17.79C169.566 17.07 169.956 16.42 170.536 15.84C171.116 15.24 171.806 14.76 172.606 14.4C173.406 14.04 174.226 13.86 175.066 13.86C176.266 13.86 177.266 14.1 178.066 14.58C178.886 15.06 179.496 15.78 179.896 16.74C180.316 17.7 180.526 18.9 180.526 20.34V30H176.836V20.61C176.836 19.81 176.726 19.15 176.506 18.63C176.286 18.09 175.946 17.7 175.486 17.46C175.026 17.2 174.466 17.08 173.806 17.1C173.266 17.1 172.766 17.19 172.306 17.37C171.866 17.53 171.476 17.77 171.136 18.09C170.816 18.39 170.556 18.74 170.356 19.14C170.176 19.54 170.086 19.98 170.086 20.46V30H168.256C167.896 30 167.556 30 167.236 30C166.936 30 166.656 30 166.396 30ZM192.088 30.3C190.428 30.3 188.958 29.95 187.678 29.25C186.418 28.55 185.428 27.6 184.708 26.4C184.008 25.18 183.658 23.79 183.658 22.23C183.658 20.99 183.858 19.86 184.258 18.84C184.658 17.82 185.208 16.94 185.908 16.2C186.628 15.44 187.478 14.86 188.458 14.46C189.458 14.04 190.548 13.83 191.728 13.83C192.768 13.83 193.738 14.03 194.638 14.43C195.538 14.83 196.318 15.38 196.978 16.08C197.638 16.76 198.138 17.58 198.478 18.54C198.838 19.48 199.008 20.51 198.988 21.63L198.958 22.92H186.148L185.458 20.4H195.868L195.388 20.91V20.25C195.328 19.63 195.128 19.09 194.788 18.63C194.448 18.15 194.008 17.78 193.468 17.52C192.948 17.24 192.368 17.1 191.728 17.1C190.748 17.1 189.918 17.29 189.238 17.67C188.578 18.05 188.078 18.6 187.738 19.32C187.398 20.02 187.228 20.9 187.228 21.96C187.228 22.98 187.438 23.87 187.858 24.63C188.298 25.39 188.908 25.98 189.688 26.4C190.488 26.8 191.418 27 192.478 27C193.218 27 193.898 26.88 194.518 26.64C195.138 26.4 195.808 25.97 196.528 25.35L198.358 27.9C197.818 28.4 197.198 28.83 196.498 29.19C195.818 29.53 195.098 29.8 194.338 30C193.578 30.2 192.828 30.3 192.088 30.3ZM202.256 30V14.19H205.886L205.946 19.23L205.436 18.09C205.656 17.29 206.036 16.57 206.576 15.93C207.116 15.29 207.736 14.79 208.436 14.43C209.156 14.05 209.906 13.86 210.686 13.86C211.026 13.86 211.346 13.89 211.646 13.95C211.966 14.01 212.226 14.08 212.426 14.16L211.436 18.21C211.216 18.09 210.946 17.99 210.626 17.91C210.306 17.83 209.986 17.79 209.666 17.79C209.166 17.79 208.686 17.89 208.226 18.09C207.786 18.27 207.396 18.53 207.056 18.87C206.716 19.21 206.446 19.61 206.246 20.07C206.066 20.51 205.976 21.01 205.976 21.57V30H202.256Z" fill="#383F3B"/>
<path d="M28.4017 21.0821C28.4116 20.9883 28.4412 20.8994 28.4412 20.8056C28.4412 19.0626 23.2347 25.1401 25.2811 17.6455C23.7655 23.1962 24.0862 17.8331 23.5973 18.1393C22.7283 16.2234 28.4565 22.8054 26.2148 22.8054C23.1633 22.8054 19.0596 18.0948 19.0596 21.1513C19.0596 21.2994 26.8513 22.9634 26.8612 23.1066C24.4121 23.2893 18.1115 21.5562 18.1115 24.0546C18.1115 26.6716 19.6476 24.0546 22.2646 24.0546L23.5973 25.5458C26.2143 25.5458 24.7784 27.7571 24.7784 25.1401C24.7784 23.0613 30.2583 21.724 28.4017 21.0821ZM7.14981 19.9662C4.99203 17.8084 4.99203 14.3027 7.14981 12.1498C9.3076 9.99203 12.8134 9.99203 14.9712 12.1498C15.4501 12.6288 15.8056 13.1818 16.0723 13.7644C16.5562 13.5817 17.0647 13.4682 17.5881 13.3941L19.0596 9.00448C19.2571 8.4169 18.6991 7.86387 18.1115 8.05644L13.7762 9.50319L11.7271 5.41476C11.4555 4.86174 10.6655 4.86174 10.389 5.41476L8.34474 9.50319L4.00449 8.05644C3.42184 7.86387 2.86388 8.42183 3.05645 9.00448L4.5032 13.3398L0.414768 15.389C-0.138256 15.6655 -0.138256 16.4506 0.414768 16.7271L4.5032 18.7713L3.05645 23.1066C2.85894 23.6942 3.4169 24.2472 4.00449 24.0546L7.76209 22.8054C8.06329 22.1931 8.45337 21.6352 8.92739 21.1513C8.28055 20.8846 7.67321 20.4896 7.14981 19.9662ZM6.9128 16.0555C6.9128 18.0701 8.35955 19.749 10.2655 20.1193C10.6605 19.8872 11.0704 19.6848 11.5098 19.5416C11.7765 17.3542 13.0405 15.468 14.8378 14.357C14.1861 12.9201 12.7393 11.9128 11.0605 11.9128C8.77432 11.9128 6.9128 13.7694 6.9128 16.0555Z" fill="#6F48C9"/>
<path d="M28.3227 21.2272C28.47 20.8429 28.5526 20.4228 28.5526 19.9847C28.5526 18.0814 27.0084 16.5373 25.1052 16.5373C24.3977 16.5373 23.737 16.7527 23.1911 17.119C22.1964 15.3953 20.3398 14.239 18.2103 14.239C15.0358 14.239 12.4646 16.8102 12.4646 19.9847C12.4646 20.0816 12.4682 20.1786 12.4718 20.2756C10.4608 20.983 9.01717 22.9006 9.01717 25.1558C9.01717 28.0107 11.3334 30.3269 14.1883 30.3269H27.4034C29.9423 30.3269 32 28.2693 32 25.7304C32 23.5075 30.4199 21.6509 28.3227 21.2272Z" fill="#383F3B"/>
</svg>
