<svg width="236" height="50" viewBox="0 0 236 50" fill="none" xmlns="http://www.w3.org/2000/svg">
<path d="M18.1173 22.1626C16.2709 20.7836 13.9792 19.9658 11.4953 19.9658C5.37035 19.9666 0.40464 24.9383 0.40464 31.0706C0.40464 37.185 5.34072 42.1433 11.441 42.1729V42.1743H44.6593V42.1718C47.055 42.1175 48.9812 40.136 48.9812 37.6997C48.9812 35.2285 47.001 33.2243 44.558 33.2243C44.4621 33.2243 44.3644 33.2296 44.2691 33.2345C43.3466 30.6522 40.881 28.804 37.984 28.804C37.1723 28.804 36.3944 28.9486 35.6751 29.2146C34.7928 23.9653 30.2342 19.9648 24.74 19.9648C22.2572 19.9666 19.9655 20.7836 18.1173 22.1626ZM44.9454 31.948C45.8319 31.948 46.6553 32.2115 47.3471 32.6645C47.6992 32.0545 47.4868 31.2752 46.8695 30.9228L43.5064 29.0033C43.1656 28.8089 42.7744 28.786 42.4294 28.9056C43.438 29.6803 44.2204 30.7365 44.6575 31.9578C44.7521 31.9522 44.848 31.948 44.9454 31.948ZM23.3003 17.502L19.9373 15.5822C19.3178 15.2287 18.5265 15.439 18.1685 16.0507C17.81 16.6621 18.0231 17.4456 18.6429 17.7991L21.3586 19.3495C22.1778 19.0529 23.0417 18.8507 23.9381 18.7548C23.9953 18.2637 23.7607 17.7642 23.3003 17.502ZM28.0522 13.7167L26.1102 10.3914C25.7525 9.77972 24.9608 9.56946 24.3421 9.92295C23.7226 10.2764 23.5106 11.0596 23.8679 11.6713L25.8096 14.9966C26.1674 15.6087 26.959 15.8182 27.5778 15.4651C28.1972 15.1116 28.41 14.3292 28.0522 13.7167ZM28.2255 16.5735C27.2296 17.1415 26.3864 17.871 25.7045 18.705C30.9373 18.9756 35.2094 22.8749 36.06 27.94C36.7796 27.6744 37.5575 27.5291 38.3693 27.5291C39.3002 27.5291 40.1861 27.7206 40.9911 28.0656C42.1711 25.5175 42.1292 22.4642 40.603 19.854C38.1011 15.5674 32.5593 14.0991 28.2255 16.5735ZM34.3215 12.9459V9.10627C34.3215 8.3993 33.7422 7.82639 33.0275 7.82639C32.3124 7.82639 31.7328 8.3993 31.7328 9.10627V12.9466C31.7328 13.6532 32.3124 14.2265 33.0275 14.2265C33.7422 14.2258 34.3215 13.6525 34.3215 12.9459ZM41.7969 11.9292C42.1553 11.3182 41.9422 10.5354 41.3231 10.1819C40.7036 9.8277 39.9123 10.0383 39.5542 10.6493L37.6125 13.9753C37.2541 14.5867 37.4672 15.3695 38.0867 15.7237C38.7055 16.0772 39.4971 15.8662 39.8552 15.2552L41.7969 11.9292ZM47.3528 16.0211C47.2632 15.8666 47.146 15.7392 47.0109 15.639C46.6084 15.337 46.0457 15.2841 45.5804 15.5498L42.2167 17.4685C41.5979 17.822 41.3859 18.6055 41.7432 19.2169C41.8328 19.3714 41.95 19.4988 42.0851 19.599C42.4879 19.9009 43.0503 19.9542 43.5159 19.6886L46.8786 17.7694C47.4981 17.416 47.7105 16.6331 47.3528 16.0211ZM49.5954 24.3258C49.5954 23.6189 49.0147 23.046 48.3014 23.046H44.4173C43.7029 23.046 43.1219 23.6189 43.1219 24.3258C43.1219 25.0328 43.7026 25.6057 44.4173 25.6057H48.3014C49.0161 25.6054 49.5954 25.0324 49.5954 24.3258Z" fill="#6F48C9"/>
<path d="M62.82 36V15H71.25C72.77 15 74.14 15.25 75.36 15.75C76.6 16.25 77.66 16.97 78.54 17.91C79.44 18.85 80.12 19.96 80.58 21.24C81.06 22.52 81.3 23.94 81.3 25.5C81.3 27.06 81.06 28.49 80.58 29.79C80.12 31.07 79.45 32.18 78.57 33.12C77.69 34.04 76.63 34.75 75.39 35.25C74.15 35.75 72.77 36 71.25 36H62.82ZM66.72 32.97L66.42 32.4H71.1C72.08 32.4 72.95 32.24 73.71 31.92C74.49 31.6 75.15 31.14 75.69 30.54C76.23 29.94 76.64 29.22 76.92 28.38C77.2 27.52 77.34 26.56 77.34 25.5C77.34 24.44 77.2 23.49 76.92 22.65C76.64 21.79 76.22 21.06 75.66 20.46C75.12 19.86 74.47 19.4 73.71 19.08C72.95 18.76 72.08 18.6 71.1 18.6H66.33L66.72 18.09V32.97ZM92.2751 36.3C90.6151 36.3 89.1451 35.95 87.8651 35.25C86.6051 34.55 85.6151 33.6 84.8951 32.4C84.1951 31.18 83.8451 29.79 83.8451 28.23C83.8451 26.99 84.0451 25.86 84.4451 24.84C84.8451 23.82 85.3951 22.94 86.0951 22.2C86.8151 21.44 87.6651 20.86 88.6451 20.46C89.6451 20.04 90.7351 19.83 91.9151 19.83C92.9551 19.83 93.9251 20.03 94.8251 20.43C95.7251 20.83 96.5051 21.38 97.1651 22.08C97.8251 22.76 98.3251 23.58 98.6651 24.54C99.0251 25.48 99.1951 26.51 99.1751 27.63L99.1451 28.92H86.3351L85.6451 26.4H96.0551L95.5751 26.91V26.25C95.5151 25.63 95.3151 25.09 94.9751 24.63C94.6351 24.15 94.1951 23.78 93.6551 23.52C93.1351 23.24 92.5551 23.1 91.9151 23.1C90.9351 23.1 90.1051 23.29 89.4251 23.67C88.7651 24.05 88.2651 24.6 87.9251 25.32C87.5851 26.02 87.4151 26.9 87.4151 27.96C87.4151 28.98 87.6251 29.87 88.0451 30.63C88.4851 31.39 89.0951 31.98 89.8751 32.4C90.6751 32.8 91.6051 33 92.6651 33C93.4051 33 94.0851 32.88 94.7051 32.64C95.3251 32.4 95.9951 31.97 96.7151 31.35L98.5451 33.9C98.0051 34.4 97.3851 34.83 96.6851 35.19C96.0051 35.53 95.2851 35.8 94.5251 36C93.7651 36.2 93.0151 36.3 92.2751 36.3ZM107.723 36.3C106.323 36.3 105.063 36.07 103.943 35.61C102.843 35.13 101.943 34.45 101.243 33.57L103.643 31.5C104.243 32.18 104.913 32.67 105.653 32.97C106.393 33.27 107.173 33.42 107.993 33.42C108.333 33.42 108.633 33.38 108.893 33.3C109.173 33.22 109.413 33.1 109.613 32.94C109.813 32.78 109.963 32.6 110.063 32.4C110.183 32.18 110.243 31.94 110.243 31.68C110.243 31.2 110.063 30.82 109.703 30.54C109.503 30.4 109.183 30.25 108.743 30.09C108.323 29.93 107.773 29.77 107.093 29.61C106.013 29.33 105.113 29.01 104.393 28.65C103.673 28.27 103.113 27.85 102.713 27.39C102.373 27.01 102.113 26.58 101.933 26.1C101.773 25.62 101.693 25.1 101.693 24.54C101.693 23.84 101.843 23.21 102.143 22.65C102.463 22.07 102.893 21.57 103.433 21.15C103.973 20.73 104.603 20.41 105.323 20.19C106.043 19.97 106.793 19.86 107.573 19.86C108.373 19.86 109.143 19.96 109.883 20.16C110.643 20.36 111.343 20.65 111.983 21.03C112.643 21.39 113.203 21.83 113.663 22.35L111.623 24.6C111.243 24.24 110.823 23.92 110.363 23.64C109.923 23.36 109.473 23.14 109.013 22.98C108.553 22.8 108.123 22.71 107.723 22.71C107.343 22.71 107.003 22.75 106.703 22.83C106.403 22.89 106.153 22.99 105.953 23.13C105.753 23.27 105.593 23.45 105.473 23.67C105.373 23.87 105.323 24.11 105.323 24.39C105.343 24.63 105.403 24.86 105.503 25.08C105.623 25.28 105.783 25.45 105.983 25.59C106.203 25.73 106.533 25.89 106.973 26.07C107.413 26.25 107.983 26.42 108.683 26.58C109.663 26.84 110.483 27.13 111.143 27.45C111.803 27.77 112.323 28.14 112.703 28.56C113.083 28.92 113.353 29.34 113.513 29.82C113.673 30.3 113.753 30.83 113.753 31.41C113.753 32.35 113.483 33.19 112.943 33.93C112.423 34.67 111.703 35.25 110.783 35.67C109.883 36.09 108.863 36.3 107.723 36.3ZM120.724 36L115.414 20.19L119.194 20.16L122.734 31.44L122.074 31.38L125.914 22.56H128.134L132.064 31.38L131.284 31.47L134.854 20.19H138.634L133.294 36H130.654L126.604 26.52L127.174 26.58L123.334 36H120.724ZM148.32 36.3C146.66 36.3 145.19 35.95 143.91 35.25C142.65 34.55 141.66 33.6 140.94 32.4C140.24 31.18 139.89 29.79 139.89 28.23C139.89 26.99 140.09 25.86 140.49 24.84C140.89 23.82 141.44 22.94 142.14 22.2C142.86 21.44 143.71 20.86 144.69 20.46C145.69 20.04 146.78 19.83 147.96 19.83C149 19.83 149.97 20.03 150.87 20.43C151.77 20.83 152.55 21.38 153.21 22.08C153.87 22.76 154.37 23.58 154.71 24.54C155.07 25.48 155.24 26.51 155.22 27.63L155.19 28.92H142.38L141.69 26.4H152.1L151.62 26.91V26.25C151.56 25.63 151.36 25.09 151.02 24.63C150.68 24.15 150.24 23.78 149.7 23.52C149.18 23.24 148.6 23.1 147.96 23.1C146.98 23.1 146.15 23.29 145.47 23.67C144.81 24.05 144.31 24.6 143.97 25.32C143.63 26.02 143.46 26.9 143.46 27.96C143.46 28.98 143.67 29.87 144.09 30.63C144.53 31.39 145.14 31.98 145.92 32.4C146.72 32.8 147.65 33 148.71 33C149.45 33 150.13 32.88 150.75 32.64C151.37 32.4 152.04 31.97 152.76 31.35L154.59 33.9C154.05 34.4 153.43 34.83 152.73 35.19C152.05 35.53 151.33 35.8 150.57 36C149.81 36.2 149.06 36.3 148.32 36.3ZM164.458 36.3C163.158 36.3 161.978 35.94 160.918 35.22C159.858 34.5 159.008 33.52 158.368 32.28C157.728 31.04 157.408 29.63 157.408 28.05C157.408 26.47 157.728 25.06 158.368 23.82C159.008 22.58 159.878 21.61 160.978 20.91C162.078 20.21 163.318 19.86 164.698 19.86C165.498 19.86 166.228 19.98 166.888 20.22C167.548 20.44 168.128 20.76 168.628 21.18C169.128 21.6 169.538 22.08 169.858 22.62C170.198 23.16 170.428 23.74 170.548 24.36L169.738 24.15V20.19H173.458V36H169.708V32.22L170.578 32.07C170.438 32.61 170.178 33.14 169.798 33.66C169.438 34.16 168.978 34.61 168.418 35.01C167.878 35.39 167.268 35.7 166.588 35.94C165.928 36.18 165.218 36.3 164.458 36.3ZM165.478 33.03C166.338 33.03 167.098 32.82 167.758 32.4C168.418 31.98 168.928 31.4 169.288 30.66C169.668 29.9 169.858 29.03 169.858 28.05C169.858 27.09 169.668 26.24 169.288 25.5C168.928 24.76 168.418 24.18 167.758 23.76C167.098 23.34 166.338 23.13 165.478 23.13C164.618 23.13 163.858 23.34 163.198 23.76C162.558 24.18 162.058 24.76 161.698 25.5C161.338 26.24 161.158 27.09 161.158 28.05C161.158 29.03 161.338 29.9 161.698 30.66C162.058 31.4 162.558 31.98 163.198 32.4C163.858 32.82 164.618 33.03 165.478 33.03ZM179.446 36V16.17H183.136V36H179.446ZM176.326 23.61V20.19H186.586V23.61H176.326ZM189.396 36V13.8H193.056V23.43L192.366 23.79C192.566 23.07 192.956 22.42 193.536 21.84C194.116 21.24 194.806 20.76 195.606 20.4C196.406 20.04 197.226 19.86 198.066 19.86C199.266 19.86 200.266 20.1 201.066 20.58C201.886 21.06 202.496 21.78 202.896 22.74C203.316 23.7 203.526 24.9 203.526 26.34V36H199.836V26.61C199.836 25.81 199.726 25.15 199.506 24.63C199.286 24.09 198.946 23.7 198.486 23.46C198.026 23.2 197.466 23.08 196.806 23.1C196.266 23.1 195.766 23.19 195.306 23.37C194.866 23.53 194.476 23.77 194.136 24.09C193.816 24.39 193.556 24.74 193.356 25.14C193.176 25.54 193.086 25.98 193.086 26.46V36H191.256C190.896 36 190.556 36 190.236 36C189.936 36 189.656 36 189.396 36ZM215.088 36.3C213.428 36.3 211.958 35.95 210.678 35.25C209.418 34.55 208.428 33.6 207.708 32.4C207.008 31.18 206.658 29.79 206.658 28.23C206.658 26.99 206.858 25.86 207.258 24.84C207.658 23.82 208.208 22.94 208.908 22.2C209.628 21.44 210.478 20.86 211.458 20.46C212.458 20.04 213.548 19.83 214.728 19.83C215.768 19.83 216.738 20.03 217.638 20.43C218.538 20.83 219.318 21.38 219.978 22.08C220.638 22.76 221.138 23.58 221.478 24.54C221.838 25.48 222.008 26.51 221.988 27.63L221.958 28.92H209.148L208.458 26.4H218.868L218.388 26.91V26.25C218.328 25.63 218.128 25.09 217.788 24.63C217.448 24.15 217.008 23.78 216.468 23.52C215.948 23.24 215.368 23.1 214.728 23.1C213.748 23.1 212.918 23.29 212.238 23.67C211.578 24.05 211.078 24.6 210.738 25.32C210.398 26.02 210.228 26.9 210.228 27.96C210.228 28.98 210.438 29.87 210.858 30.63C211.298 31.39 211.908 31.98 212.688 32.4C213.488 32.8 214.418 33 215.478 33C216.218 33 216.898 32.88 217.518 32.64C218.138 32.4 218.808 31.97 219.528 31.35L221.358 33.9C220.818 34.4 220.198 34.83 219.498 35.19C218.818 35.53 218.098 35.8 217.338 36C216.578 36.2 215.828 36.3 215.088 36.3ZM225.256 36V20.19H228.886L228.946 25.23L228.436 24.09C228.656 23.29 229.036 22.57 229.576 21.93C230.116 21.29 230.736 20.79 231.436 20.43C232.156 20.05 232.906 19.86 233.686 19.86C234.026 19.86 234.346 19.89 234.646 19.95C234.966 20.01 235.226 20.08 235.426 20.16L234.436 24.21C234.216 24.09 233.946 23.99 233.626 23.91C233.306 23.83 232.986 23.79 232.666 23.79C232.166 23.79 231.686 23.89 231.226 24.09C230.786 24.27 230.396 24.53 230.056 24.87C229.716 25.21 229.446 25.61 229.246 26.07C229.066 26.51 228.976 27.01 228.976 27.57V36H225.256Z" fill="#383F3B"/>
</svg>
